<svg width="64" height="64" viewBox="0 0 64 64" version="1.1" xmlns:inkscape="http://www.inkscape.org/namespaces/inkscape"><defs><linearGradient id="linear0" gradientUnits="userSpaceOnUse" x1="0" y1="0" x2="0" y2="1" gradientTransform="matrix(55.992188,0,0,56,4.003906,4)"><stop offset="0" style="stop-color:rgb(0%,73.333335%,100%);stop-opacity:1;"/><stop offset="1" style="stop-color:rgb(0%,52.156866%,70.980394%);stop-opacity:1;"/></linearGradient><linearGradient id="linear1" gradientUnits="userSpaceOnUse" x1="0" y1="0" x2="0" y2="1" gradientTransform="matrix(55.992188,0,0,56,4.003906,4)"><stop offset="0" style="stop-color:rgb(0%,73.333335%,100%);stop-opacity:1;"/><stop offset="1" style="stop-color:rgb(0%,52.156866%,70.980394%);stop-opacity:1;"/></linearGradient><linearGradient id="linear2" gradientUnits="userSpaceOnUse" x1="0" y1="0" x2="0" y2="1" gradientTransform="matrix(55.992188,0,0,56,4.003906,4)"><stop offset="0" style="stop-color:rgb(0%,73.333335%,100%);stop-opacity:1;"/><stop offset="1" style="stop-color:rgb(0%,52.156866%,70.980394%);stop-opacity:1;"/></linearGradient><filter style="color-interpolation-filters:sRGB;" inkscape:label="Diffuse Light" id="filter184" x="-0.0375" y="-0.0375" width="1.075" height="1.075"><feGaussianBlur in="SourceGraphic" stdDeviation="1" result="blur" id="feGaussianBlur174" /><feDiffuseLighting diffuseConstant="1" surfaceScale="10" lighting-color="rgb(255,255,255)" result="diffuse" id="feDiffuseLighting178"><feDistantLight elevation="8" azimuth="235" id="feDistantLight176" /></feDiffuseLighting><feComposite in="diffuse" in2="diffuse" operator="arithmetic" k1="1" result="composite1" id="feComposite180" /><feComposite in="composite1" in2="SourceGraphic" k1="1" operator="arithmetic" k3="1" result="composite2" id="feComposite182" /></filter></defs><path style="fill:none;stroke:rgb(0%,52.156866%,70.980394%);stroke-width:5.784;stroke-linecap:butt;stroke-linejoin:miter;stroke-miterlimit:4;stroke-opacity:1;filter:url(#filter184)" d="m 60.799039,32.287822 c 0,15.735268 -12.794766,28.485604 -28.573558,28.485604 -15.783043,0 -28.5778089,-12.750336 -28.5778089,-28.485604 0,-15.731042 12.7947659,-28.4856004 28.5778089,-28.4856004 15.778792,0 28.573558,12.7545584 28.573558,28.4856004 z m 0,0" /><g id="surface1" style="filter:url(#filter184)" transform="matrix(0.55752105,0,0,0.5976279,14.447223,13.099253)"><path style="fill:none;stroke-width:40.349998;stroke-linecap:round;stroke-linejoin:round;stroke:url(#linear0);stroke-miterlimit:4;" d="M 960.438969 715.22887 C 1071.154135 675.38149 1172.341004 674.737926 1279.705309 715.568529 " transform="matrix(0.171365,0,0,0.21851,-159.905519,-136.088995)"/><path style="fill:none;stroke-width:26.899;stroke-linecap:round;stroke-linejoin:round;stroke:url(#linear1);stroke-miterlimit:4;" d="M 979.449973 791.973958 C 1074.778535 754.557823 1161.786933 750.839449 1262.403927 792.617523 " transform="matrix(0.171365,0,0,0.21851,-159.905519,-136.088995)"/><path style="fill:none;stroke-width:26.899;stroke-linecap:round;stroke-linejoin:round;stroke:url(#linear2);stroke-miterlimit:4;" d="M 1001.105194 861.639834 C 1068.099609 829.962151 1159.439051 819.522102 1239.859703 861.300175 " transform="matrix(0.171365,0,0,0.21851,-159.905519,-136.088995)"/></g></svg>
